<svg width="18" height="15" viewBox="0 0 18 15" fill="none" xmlns="http://www.w3.org/2000/svg">
<path d="M5.7 9.65002C5 10.15 4.1 10.45 3.2 10.45H1C0.4 10.45 0 10.85 0 11.45C0 12.05 0.4 12.45 1 12.45H3.2C4.5 12.45 5.8 12.05 6.9 11.25C7.3 10.95 7.4 10.25 7.1 9.85002C6.7 9.35002 6.1 9.25002 5.7 9.65002Z" fill="#333333"/>
<path d="M10 6.15001C10.3 6.15001 10.6 6.05001 10.8 5.85001C11.5 4.95001 12.6 4.45001 13.8 4.45001H14.6L14.3 4.75001C13.9 5.15001 13.9 5.75001 14.3 6.15001C14.5 6.35001 14.8 6.45001 15 6.45001C15.2 6.45001 15.5 6.35001 15.7 6.15001L17.7 4.15001C17.8 4.05001 17.9 3.95001 17.9 3.85001C18 3.65001 18 3.35001 17.9 3.05001C17.8 2.95001 17.8 2.85001 17.7 2.75001L15.7 0.750012C15.3 0.350012 14.7 0.350012 14.3 0.750012C13.9 1.15001 13.9 1.75001 14.3 2.15001L14.6 2.45001H13.8C12 2.45001 10.4 3.25001 9.2 4.55001C8.8 4.95001 8.9 5.55001 9.3 5.95001C9.5 6.15001 9.8 6.15001 10 6.15001Z" fill="#333333"/>
<path d="M17.7 10.75L15.7 8.75001C15.3 8.35001 14.7 8.35001 14.3 8.75001C13.9 9.15001 13.9 9.75001 14.3 10.15L14.6 10.45H13.1C11.5 10.45 10.2 9.55001 9.5 8.15001L8.3 5.75001C7.3 3.75001 5.2 2.45001 2.9 2.45001H1C0.4 2.45001 0 2.85001 0 3.45001C0 4.05001 0.4 4.45001 1 4.45001H2.9C4.5 4.45001 5.8 5.35001 6.5 6.75001L7.7 9.15001C8.7 11.25 10.8 12.55 13.1 12.55H14.6L14.3 12.85C13.9 13.25 13.9 13.85 14.3 14.25C14.5 14.45 14.8 14.55 15 14.55C15.2 14.55 15.5 14.45 15.7 14.25L17.7 12.25C18.1 11.75 18.1 11.15 17.7 10.75Z" fill="#333333"/>
</svg>
