<svg width="86" height="19" viewBox="0 0 86 19" fill="none" xmlns="http://www.w3.org/2000/svg">
<path d="M16.0012 14.8837C14.3094 17.0496 11.9337 18.133 8.84657 18.133C3.4698 18.133 0 14.532 0 9.99434C0 5.34001 3.68129 1.7682 8.90571 1.7682C11.9938 1.7682 14.606 3.02743 16.1796 5.31085L12.8845 7.09588C11.7563 5.92501 10.6576 5.34001 8.93529 5.34001C5.90727 5.34001 3.97791 7.35921 3.97791 10.0527C3.97791 12.6878 5.84813 14.5594 8.75785 14.5594C10.5089 14.5594 11.9042 13.9735 12.8845 12.7735L16.0012 14.8837Z" fill="#15181F"/>
<path d="M30.0284 15.8531C28.6842 17.1495 27.2576 17.8255 25.3434 17.8255C21.4856 17.8255 18.1144 14.5559 18.1144 9.96078C18.1144 5.28438 21.3144 2.07223 25.2574 2.07223C27.0855 2.07223 28.6573 2.74824 30.0284 4.10026V2.46988H33.8289V17.4305H30.0284V15.8531ZM21.9426 9.9325C21.9426 12.4952 23.6569 14.3844 26.029 14.3844C28.3714 14.3844 30.2004 12.6374 30.2004 9.90511C30.2004 7.28413 28.4288 5.50972 26.029 5.50972C23.5144 5.51325 21.9426 7.48561 21.9426 9.93604V9.9325Z" fill="#15181F"/>
<path d="M51.0908 17.4304H47.2903V10.1896C47.2903 7.28764 46.7195 5.51323 44.602 5.51323C42.7201 5.51323 41.3445 7.03403 41.3445 10.1083V17.4331H37.5477V2.46986H41.3472V4.18861C42.6332 2.80831 44.2901 2.07574 46.0904 2.07574C47.9723 2.07574 49.5764 2.94881 50.5191 4.75239C51.9188 3.00537 53.3195 2.07574 55.6046 2.07574C57.2902 2.07574 58.8047 2.75175 59.6623 3.82277C60.6623 5.05991 60.7761 6.69647 60.7761 8.66883V17.4304H56.9766V9.17605C56.9766 6.72475 56.0903 5.51323 54.3778 5.51323C52.4637 5.51323 51.0926 6.97836 51.0926 10.0491L51.0908 17.4304Z" fill="#15181F"/>
<path d="M79.2399 12.7469C78.2139 15.3485 76.3804 16.8401 73.2735 17.5965C68.5859 18.7391 64.7128 16.0846 63.6438 11.8173C62.6491 7.85137 64.6429 3.47628 69.3861 2.32044C74.046 1.18491 78.0311 3.69632 79.1826 8.29143C79.265 8.62016 79.2785 8.79071 79.3618 9.11944L67.489 12.0126C68.3905 14.0848 70.3566 14.8828 72.4652 14.3694C74.046 13.9841 74.9905 13.2895 75.7692 12.055L79.2399 12.7469ZM74.952 7.14619C74.0272 5.57236 72.1856 4.91756 70.2159 5.3974C68.3861 5.83923 67.1978 7.0914 66.9352 9.1L74.952 7.14619Z" fill="#15181F"/>
<path d="M82.1479 0.935811V17.4305H85.9483V0L82.1479 0.935811Z" fill="#15181F"/>
</svg>
